<svg xmlns="http://www.w3.org/2000/svg" viewBox="0 0 512 512">
  <defs>
    <linearGradient id="bg" x1="0%" y1="0%" x2="100%" y2="100%">
      <stop offset="0%" stop-color="#f2e8d4"/>
      <stop offset="100%" stop-color="#d9c9a4"/>
    </linearGradient>
    <linearGradient id="accent" x1="0%" y1="0%" x2="100%" y2="100%">
      <stop offset="0%" stop-color="#315847"/>
      <stop offset="100%" stop-color="#18352b"/>
    </linearGradient>
  </defs>
  <rect width="512" height="512" rx="112" fill="url(#bg)"/>
  <path d="M118 140c0-14.36 11.64-26 26-26h144c49.71 0 90 40.29 90 90v160c0 18.78-15.22 34-34 34H170c-28.72 0-52-23.28-52-52V140z" fill="#f8f4ea" stroke="#ccb98a" stroke-width="10"/>
  <path d="M288 114h80c14.36 0 26 11.64 26 26v188c0 38.66-31.34 70-70 70h-12" fill="none" stroke="#ccb98a" stroke-width="10"/>
  <path d="M170 212c40-20 80-30 120-30 32 0 60 6 84 18" fill="none" stroke="url(#accent)" stroke-width="18" stroke-linecap="round"/>
  <path d="M170 272c40-20 80-30 120-30 32 0 60 6 84 18" fill="none" stroke="url(#accent)" stroke-width="18" stroke-linecap="round" opacity="0.88"/>
  <path d="M170 332c40-20 80-30 120-30 32 0 60 6 84 18" fill="none" stroke="url(#accent)" stroke-width="18" stroke-linecap="round" opacity="0.76"/>
  <circle cx="118" cy="398" r="36" fill="url(#accent)"/>
  <circle cx="394" cy="398" r="36" fill="url(#accent)"/>
  <path d="M118 398h276" stroke="url(#accent)" stroke-width="22" stroke-linecap="round"/>
</svg>
